<svg xmlns="http://www.w3.org/2000/svg" viewBox="0 0 512 512">
  <rect width="512" height="512" fill="#22c55e" rx="64"/>
  <path fill="white" d="M256 96c-88.4 0-160 71.6-160 160s71.6 160 160 160 160-71.6 160-160S344.4 96 256 96zm0 280c-66.3 0-120-53.7-120-120s53.7-120 120-120 120 53.7 120 120-53.7 120-120 120z"/>
  <path fill="white" d="M256 176c-44.1 0-80 35.9-80 80s35.9 80 80 80 80-35.9 80-80-35.9-80-80-80zm0 120c-22.1 0-40-17.9-40-40s17.9-40 40-40 40 17.9 40 40-17.9 40-40 40z"/>
  <path fill="white" d="M256 216c-22.1 0-40 17.9-40 40h80c0-22.1-17.9-40-40-40z"/>
  <path fill="#22c55e" d="M236 256h40v80h-40z"/>
  <path fill="white" d="M296 336l-40-40v40z"/>
</svg>
